HIERARCHY
ROOT Hips
{
	OFFSET	0.00	0.00	0.00
	CHANNELS 6 Xposition Yposition Zposition Zrotation Xrotation Yrotation
	JOINT Chest
	{
		OFFSET	 0.000000	 4.570000	 0.000000
		CHANNELS 3 Zrotation Xrotation Yrotation
		JOINT Neck
		{
			OFFSET	 0.000000	 17.620001	 0.000000
			CHANNELS 3 Zrotation Xrotation Yrotation
			JOINT Head
			{
				OFFSET	 0.000000	 5.190000	 0.000000
				CHANNELS 3 Zrotation Xrotation Yrotation
				End Site 
				{
					OFFSET	 0.000000	 4.140008	 0.000000
				}
			}
		}
		JOINT LeftCollar
		{
			OFFSET	 1.060000	 15.330000	 01.760000
			CHANNELS 3 Zrotation Xrotation Yrotation
			JOINT LeftShoulder
			{
				OFFSET	 5.00000	 0.000000	 0.000000
				CHANNELS 3 Zrotation Xrotation Yrotation
				JOINT LeftElbow
				{
					OFFSET	 0.000000	-11.90000	 0.000000
					CHANNELS 3 Zrotation Xrotation Yrotation
					JOINT LeftWrist
					{
						OFFSET	 0.000000	-9.520000	 0.000000
						CHANNELS 3 Zrotation Xrotation Yrotation
						End Site 
						{
							OFFSET	 0.000000	-7.0	 0.000000
						}
					}
				}
			}
		}
		JOINT RightCollar
		{
			OFFSET	-1.060000	 15.330000	 01.760000
			CHANNELS 3 Zrotation Xrotation Yrotation
			JOINT RightShoulder
			{
				OFFSET	-5.000000	 0.000000	 0.000000
				CHANNELS 3 Zrotation Xrotation Yrotation
				JOINT RightElbow
				{
					OFFSET	 0.000000	-11.900000	 0.000000
					CHANNELS 3 Zrotation Xrotation Yrotation
					JOINT RightWrist
					{
						OFFSET	 0.000000	-9.520000	 0.000000
						CHANNELS 3 Zrotation Xrotation Yrotation
						End Site 
						{
							OFFSET	 0.000000	-7.0	 0.000000
						}
					}
				}
			}
		}
	}
	JOINT LeftHip
	{
		OFFSET	 3.430000	 0.000000	 0.000000
		CHANNELS 3 Zrotation Xrotation Yrotation
		JOINT LeftKnee
		{
			OFFSET	 0.000000	-19.0	 0.000000
			CHANNELS 3 Zrotation Xrotation Yrotation
			JOINT LeftAnkle
			{
				OFFSET	 0.000000	-15.00000	 0.000000
				CHANNELS 3 Zrotation Xrotation Yrotation
				End Site 
				{
					OFFSET	 0.000000	-3.0	 0.000000
				}
			}
		}
	}
	JOINT RightHip
	{
		OFFSET	-3.430000	 0.000000	 0.000000
		CHANNELS 3 Zrotation Xrotation Yrotation
		JOINT RightKnee
		{
			OFFSET	 0.000000	-19.0	 0.000000
			CHANNELS 3 Zrotation Xrotation Yrotation
			JOINT RightAnkle
			{
				OFFSET	 0.000000	-15.00000	 0.000000
				CHANNELS 3 Zrotation Xrotation Yrotation
				End Site 
				{
					OFFSET	 0.000000	-3.0	 0.000000
				}
			}
		}
	}
}
MOTION
Frames: 8
Frame Time: 0.033333333
0.951223	32.645960	-4.440539	-358.922743	357.502746	-19.236264	-0.396102	-2.882601	6.394461	-11.232516	61.230438	8.327870	8.113307	-47.731871	28.628102	11.690037	24.234187	10.486414	97.330309	-29.683110	23.877062	38.353984	-59.475353	2.562529	-17.044151	15.131345	9.469453	-355.211737	-335.794466	-14.365931	-42.656791	11.803809	121.604685	127.161112	-172.090108	96.260162	-329.471405	348.913756	-7.581420	24.904962	0.372102	26.256913	-21.154067	55.015936	15.354183	-7.162829	-15.502929	4.788399	320.473369	324.956787	-32.075302	-355.476940	-288.080542	-2.169281	-334.873975	-338.986924	-11.218425	
1.228182	33.284253	-4.605786	-357.979876	359.041943	-20.555790	-0.051742	-3.771999	6.498359	-19.099169	58.092690	13.799090	11.926508	-44.473642	35.333408	11.869664	24.192965	10.969426	96.184060	-31.484460	23.368790	-341.833719	303.004614	-16.371529	-8.151264	19.457320	7.666527	-358.602980	-335.873013	-14.755916	-45.046988	13.665266	122.617260	119.127266	-166.634768	101.521996	-321.349928	350.214771	-6.822722	22.848796	0.506913	25.294316	-21.332497	50.655721	14.191508	-6.560237	-15.869638	6.108928	319.097605	320.385450	-34.938373	-1.378963	75.847466	3.287048	-335.712039	-336.913770	-12.712731	
1.420186	34.036956	-4.760100	-357.404392	359.526313	-20.982482	-0.183303	-3.532336	6.458554	-23.676281	55.426546	16.531421	14.431047	-41.610430	40.997099	10.379742	24.299931	9.744579	96.590661	-32.241255	23.554496	-353.175767	310.829032	-25.165000	-0.979818	20.469281	5.414743	359.720536	-335.961013	-15.395545	-48.074760	15.355761	123.218358	112.500692	-162.383126	105.036873	-312.835250	348.735570	-4.748897	20.062492	1.346302	23.861530	-18.901636	45.904030	11.218250	-7.225077	-16.417134	6.341966	319.157492	317.897759	-35.561010	-8.932157	79.733160	10.678684	-336.385988	-336.564256	-13.588735	
1.547831	34.649896	-4.842475	-356.722083	359.323210	-20.580080	-1.163183	-2.953230	6.187203	-24.697897	53.631457	16.734246	15.377472	-39.259708	44.702156	8.392794	24.495971	6.954959	97.001756	-31.422233	23.732675	-356.069909	318.294921	-24.286754	3.810782	20.362900	3.737064	359.274716	-336.050325	-16.190510	-50.846959	16.322347	122.960901	108.224836	-159.254735	107.479294	-305.511730	344.285812	-0.276471	16.642473	2.187663	22.373237	-15.185648	41.860275	8.041176	-8.005057	-16.990496	5.281182	319.873186	317.631463	-34.880634	-16.943411	82.043581	18.653316	-336.759572	-336.761102	-13.228875	
1.638193	35.044225	-4.880706	-356.248642	359.173028	-20.228822	-1.947134	-2.668622	5.981626	-24.015373	52.500715	15.892417	15.168199	-38.202497	46.420112	6.087925	24.603275	4.939997	96.565512	-31.268663	23.538243	-354.242096	324.426299	-20.332204	4.149417	19.017930	3.866154	358.931021	-336.082044	-16.434596	-52.599070	16.604739	122.237666	106.183293	-156.815101	107.035536	58.637008	-19.884488	5.048487	13.820975	2.504262	21.392239	-11.589229	39.179740	5.659342	-7.713003	-17.208072	3.629555	322.000216	318.753199	-32.396761	-16.458320	81.756857	18.141646	-337.730360	-337.037260	-11.436477	
1.693666	35.122641	-4.875974	-355.382628	358.987356	-20.084217	-3.069039	-2.779554	5.682929	-22.817879	51.193868	14.657442	15.428526	-37.789168	47.485707	4.532791	24.587266	5.218664	95.144478	-33.273324	22.911901	-351.057452	329.549324	-15.171086	2.518666	16.652817	4.646097	357.793849	-336.008060	-15.543362	-52.436870	16.456285	122.126320	105.268239	-156.040763	104.601332	59.314495	-21.271782	7.289997	11.474978	2.079089	20.794097	-8.965699	38.360271	4.305982	-6.161450	-17.333708	2.549250	324.360894	320.825861	-29.473850	-13.716084	79.145737	15.130986	-338.290982	-337.358224	-8.947419	
1.679597	34.925701	-4.878174	-354.633630	358.838349	-20.031952	-4.045727	-3.049986	5.411688	-21.789018	49.986741	13.601619	15.879621	-37.908440	48.017079	3.500157	24.507015	6.709828	94.079590	-35.742338	22.459229	-348.810211	333.224785	-11.326581	0.066031	14.285156	5.534969	356.492261	-335.873150	-13.927630	-51.285679	15.906158	122.085161	104.713477	-156.305897	101.749810	57.058046	-19.883942	5.172861	10.521981	1.051284	20.714353	-7.844475	39.467772	3.951233	-4.060438	-17.198645	2.485847	327.292438	323.977747	-25.768858	-10.877117	74.954303	11.885577	-338.093945	-338.777811	-5.670218	
1.612021	34.474839	-4.895947	-353.724559	358.983914	-19.455699	-5.262180	-3.696879	5.039338	-20.890973	49.292309	12.808652	16.440179	-38.071842	48.227176	3.544011	24.441597	7.812321	93.831149	-37.482240	22.383480	-347.767978	335.681822	-8.059696	-1.847005	12.226679	6.016761	355.347084	-335.776817	-12.616168	-50.251025	14.901726	121.347296	104.092667	-155.793523	98.997408	54.251959	-16.793643	1.219245	10.551346	-0.895588	21.072499	-7.826104	42.100441	4.295061	-2.690153	-16.652385	2.498329	329.131098	327.577749	-23.022537	-8.472954	70.792764	9.170528	-336.676790	-343.266693	-2.399028	
